<?xml version="1.0"?>
<svg xmlns="http://www.w3.org/2000/svg" xmlns:xlink="http://www.w3.org/1999/xlink" viewBox="0 0 512 512"><defs><linearGradient id="JShine" x1="256" y1="488" x2="256" y2="24" gradientUnits="userSpaceOnUse"><stop offset="0" stop-color="#12c2e9"/><stop offset="0.056" stop-color="#19bfe9"/><stop offset="0.137" stop-color="#2db6ea"/><stop offset="0.235" stop-color="#4da7ea"/><stop offset="0.344" stop-color="#7993eb"/><stop offset="0.462" stop-color="#b279ed"/><stop offset="0.497" stop-color="#c471ed"/><stop offset="1" stop-color="#f64f59"/></linearGradient></defs><g id="Gradient"><path d="M456,104H357c2.6-3.952,5.093-7.483,7.371-10.542C388.556,60.984,418.242,40,440,40a8,8,0,0,0,0-16c-52.678,0-102.683,20.96-140.8,59.019A207.783,207.783,0,0,0,280.843,104H208V80a40.045,40.045,0,0,0-40-40H56A40.045,40.045,0,0,0,16,80V448a40.045,40.045,0,0,0,40,40H456a40.045,40.045,0,0,0,40-40V144A40.045,40.045,0,0,0,456,104ZM310.5,94.342a185.717,185.717,0,0,1,73.912-45.568A203.651,203.651,0,0,0,351.539,83.9C333.785,107.743,304,157.646,304,224a8,8,0,0,0,8,8h35.307l-67.044,60.949L219.313,232H248a8,8,0,0,0,8-8C256,175.478,275.355,129.431,310.5,94.342ZM269.8,120a197.7,197.7,0,0,0-21.651,48H208V120ZM56,472a24.027,24.027,0,0,1-24-24V80A24.027,24.027,0,0,1,56,56H168a24.027,24.027,0,0,1,24,24v96a8,8,0,0,0,8,8h44.1a196.2,196.2,0,0,0-3.939,32H200a8,8,0,0,0-5.657,13.657l80,80a8,8,0,0,0,11.038.262l88-80A8,8,0,0,0,368,216H320.156a206.783,206.783,0,0,1,3.775-32H392a24.027,24.027,0,0,1,24,24V448a39.792,39.792,0,0,0,8.019,24Zm424-24a24,24,0,0,1-48,0V208a40.045,40.045,0,0,0-40-40H327.738a226.821,226.821,0,0,1,19.634-48H456a24.027,24.027,0,0,1,24,24Z" style="fill:url(#JShine)"/></g></svg>
