<svg viewBox="0 -12 512 512" xmlns="http://www.w3.org/2000/svg" xmlns:xlink="http://www.w3.org/1999/xlink"><linearGradient id="a"><stop offset="0" stop-color="#00efd1"/><stop offset="1" stop-color="#00acea"/></linearGradient><linearGradient id="b" gradientUnits="userSpaceOnUse" x1="243.950347" x2="243.950347" xlink:href="#a" y1="-14.626397" y2="481.730603"/><linearGradient id="c" gradientUnits="userSpaceOnUse" x1="112.842347" x2="112.842347" xlink:href="#a" y1="-14.626397" y2="481.730603"/><linearGradient id="d" gradientUnits="userSpaceOnUse" x1="368.586347" x2="368.586347" xlink:href="#a" y1="-14.626397" y2="481.730603"/><linearGradient id="e" gradientUnits="userSpaceOnUse" x1="412.381347" x2="412.381347" xlink:href="#a" y1="-14.626397" y2="481.730603"/><linearGradient id="f" gradientUnits="userSpaceOnUse" x1="324.791347" x2="324.791347" xlink:href="#a" y1="-14.626397" y2="481.730603"/><path d="m369.074219 115.664062h-120.128907v-9.5c0-7.71875 6.222657-13.5 13.941407-13.5h50c18.777343 0 34-15.222656 34-34 0-18.777343-15.222657-34-34-34h-133c-7.777344-.125-14.011719-6.472656-14-14.25-.015625-5.523437-4.507813-9.988281-10.03125-9.96875-5.523438.015626-9.984375 4.507813-9.96875 10.03125.007812 18.804688 15.195312 34.078126 34 34.1875h133c7.730469 0 14 6.265626 14 14 0 7.730469-6.269531 14-14 14h-50c-8.957031-.101562-17.582031 3.382813-23.953125 9.671876-6.375 6.292968-9.972656 14.871093-9.988282 23.828124v9.5h-110.257812c-50.222656.105469-94.964844 31.746094-111.804688 79.0625-16.835937 47.316407-2.140624 100.109376 36.726563 131.917969l14.234375 94.242188c3.5625 24.5625 24.621094 42.78125 49.4375 42.777343h10.210938c24.8125.011719 45.871093-18.203124 49.433593-42.761718l12.683594-83.824219c4.882813 2.378906 10.246094 3.609375 15.675781 3.601563 16.726563 0 30.816406-12.015626 34.785156-27.015626h27.75c3.96875 15 18.058594 26.953126 34.785157 26.953126 5.390625-.003907 10.714843-1.226563 15.566406-3.582032l12.671875 83.882813c3.566406 24.554687 24.625 42.765625 49.4375 42.746093h10.210938c24.8125.011719 45.871093-18.203124 49.433593-42.761718l14.199219-93.851563c38.964844-31.828125 53.730469-84.703125 36.898438-132.117187-16.832032-47.410156-61.636719-79.136719-111.949219-79.269532zm-221.921875 302.242188c-2.128906 14.757812-14.753906 25.71875-29.660156 25.757812h-10.210938c-14.90625-.039062-27.53125-11-29.660156-25.757812l-11.585938-76.542969c16.398438 8.136719 34.46875 12.347657 52.773438 12.300781h.125c13.25.027344 26.40625-2.171874 38.925781-6.507812zm48.132812-97.34375c-8.78125 0-15.898437-7.117188-15.898437-15.898438s7.117187-15.902343 15.898437-15.902343 15.902344 7.121093 15.902344 15.902343c-.011719 8.777344-7.125 15.890626-15.902344 15.898438zm81.417969-15.898438c0-8.78125 7.117187-15.902343 15.898437-15.902343s15.902344 7.121093 15.902344 15.902343-7.121094 15.898438-15.902344 15.898438c-8.777343-.011719-15.886718-7.121094-15.898437-15.898438zm133.449219 113.242188c-2.128906 14.757812-14.753906 25.71875-29.660156 25.757812h-10.210938c-14.90625-.039062-27.53125-11-29.660156-25.757812l-10.707032-70.785156c12.636719 4.371094 25.914063 6.597656 39.285157 6.59375 1.5 0 3.011719-.058594 4.515625-.117188 16.675781-.582031 33.035156-4.703125 48-12.089844zm57.226562-173.074219c-4.996094 48.964844-45.253906 86.796875-94.433594 88.75-17.089843.628907-34.058593-3.140625-49.277343-10.949219 6.441406-11.097656 6.457031-24.785156.042969-35.898437-6.410157-11.109375-18.273438-17.945313-31.101563-17.921875-15.925781 0-29.449219 10.851562-34.136719 24.851562h-29.050781c-4.683594-14-18.210937-24.851562-34.136719-24.851562-12.816406-.007812-24.664062 6.820312-31.082031 17.917969-6.414063 11.09375-6.425781 24.769531-.027344 35.875-13.980469 7.261719-29.507812 11.054687-45.261719 11.058593h-.101562c-54.675781.03125-99.023438-44.269531-99.054688-98.945312s44.269532-99.023438 98.945313-99.054688h118.140625c.660156 0 1.34375.210938 2.042969.210938s1.382812-.210938 2.042969-.210938h128.140624c27.988282.074219 54.640626 11.980469 73.367188 32.777344 18.730469 20.800782 27.789062 48.546875 24.941406 76.390625zm0 0" fill="url(#b)"/><path d="m136.574219 223.664062h-13.628907v-13.601562c0-5.523438-4.476562-10-10-10-5.523437 0-10 4.476562-10 10v13.601562h-13.832031c-5.523437 0-10 4.476563-10 10 0 5.523438 4.476563 10 10 10h13.832031v13.855469c0 5.523438 4.476563 10 10 10 5.523438 0 10-4.476562 10-10v-13.855469h13.628907c5.523437 0 10-4.476562 10-10 0-5.523437-4.476563-10-10-10zm0 0" fill="url(#c)"/><path d="m368.585938 211.707031c13.339843 0 24.152343-10.8125 24.152343-24.152343 0-13.335938-10.8125-24.148438-24.152343-24.148438-13.335938 0-24.148438 10.8125-24.148438 24.148438.015625 13.332031 10.816406 24.136718 24.148438 24.152343zm0-28.300781c2.292968 0 4.152343 1.855469 4.152343 4.148438 0 2.292968-1.859375 4.152343-4.152343 4.152343-2.292969 0-4.148438-1.859375-4.148438-4.152343 0-2.289063 1.859375-4.144532 4.148438-4.148438zm0 0" fill="url(#d)"/><path d="m368.585938 249.996094c-13.335938 0-24.148438 10.8125-24.148438 24.148437 0 13.335938 10.8125 24.148438 24.148438 24.148438 13.339843 0 24.152343-10.8125 24.152343-24.148438-.015625-13.332031-10.820312-24.136719-24.152343-24.148437zm0 28.296875c-2.292969 0-4.148438-1.855469-4.148438-4.148438s1.855469-4.148437 4.148438-4.148437c2.292968 0 4.152343 1.855468 4.152343 4.148437-.003906 2.289063-1.859375 4.148438-4.152343 4.148438zm0 0" fill="url(#d)"/><path d="m412.382812 207.199219c-13.339843 0-24.152343 10.8125-24.152343 24.148437 0 13.339844 10.8125 24.152344 24.152343 24.152344 13.335938 0 24.148438-10.8125 24.148438-24.152344-.015625-13.328125-10.820312-24.132812-24.148438-24.148437zm0 28.300781c-2.292968 0-4.152343-1.859375-4.152343-4.152344 0-2.289062 1.859375-4.148437 4.152343-4.148437 2.289063 0 4.148438 1.859375 4.148438 4.148437-.003906 2.292969-1.859375 4.148438-4.148438 4.152344zm0 0" fill="url(#e)"/><path d="m324.792969 207.199219c-13.339844.003906-24.148438 10.816406-24.148438 24.152343.003907 13.335938 10.816407 24.148438 24.152344 24.148438s24.148437-10.8125 24.148437-24.152344c-.015624-13.332031-10.820312-24.136718-24.152343-24.148437zm0 28.300781c-2.292969 0-4.152344-1.859375-4.152344-4.152344 0-2.289062 1.859375-4.148437 4.152344-4.148437 2.289062 0 4.148437 1.859375 4.148437 4.148437-.003906 2.292969-1.859375 4.148438-4.148437 4.152344zm0 0" fill="url(#f)"/></svg>