<svg width="66" height="64" viewBox="0 0 66 64" fill="none" xmlns="http://www.w3.org/2000/svg">
<path d="M63.5526 27.5887L64.2304 50.2965C64.293 52.3922 62.6111 54.125 60.5145 54.125C58.0264 54.125 55.6652 53.0265 54.0625 51.1233L48.8386 44.9199C47.8886 43.7918 46.4889 43.1406 45.0141 43.1406H20.9859C19.5111 43.1406 18.1114 43.7918 17.1614 44.9199L12.1542 50.866C10.4435 52.8974 7.87129 53.9978 5.22071 53.8322C3.23253 53.7079 1.70178 52.0282 1.76212 50.0371L2.44253 27.5836C2.63303 21.2969 6.72538 15.7967 12.6922 13.8077L14.0989 13.3389C17.3146 12.2669 20.8096 12.3946 23.9386 13.6984C29.7379 16.1147 36.2621 16.1147 42.0614 13.6984C45.1904 12.3946 48.6854 12.2669 51.9011 13.3389L53.3027 13.806C59.2719 15.7958 63.3648 21.2994 63.5526 27.5887Z" stroke="url(#paint0_linear)" stroke-width="2"/>
<rect x="9.875" y="20.4375" width="8.09375" height="8.09375" rx="4.04688" fill="url(#paint1_linear)"/>
<rect x="37.625" y="30.8438" width="8.09375" height="8.09375" rx="4.04688" fill="url(#paint2_linear)"/>
<rect x="44.5625" y="22.75" width="4.625" height="4.625" rx="2.3125" fill="url(#paint3_linear)" fill-opacity="0.8"/>
<rect x="49.1875" y="18.125" width="4.625" height="4.625" rx="2.3125" fill="url(#paint4_linear)" fill-opacity="0.8"/>
<rect x="53.8125" y="22.75" width="4.625" height="4.625" rx="2.3125" fill="url(#paint5_linear)" fill-opacity="0.8"/>
<rect x="49.1875" y="27.375" width="4.625" height="4.625" rx="2.3125" fill="url(#paint6_linear)" fill-opacity="0.8"/>
<rect x="23.75" y="29.6875" width="1.15625" height="10.4062" fill="url(#paint7_linear)"/>
<rect x="19.125" y="35.4688" width="1.15625" height="10.4062" transform="rotate(-90 19.125 35.4688)" fill="url(#paint8_linear)"/>
<rect x="27.2188" y="20.4375" width="11.5625" height="4.625" rx="2.3125" fill="url(#paint9_linear)"/>
<defs>
<linearGradient id="paint0_linear" x1="33" y1="3.09375" x2="33" y2="77.0938" gradientUnits="userSpaceOnUse">
<stop stop-color="#EF3A45"/>
<stop offset="0.380108" stop-color="#D740C8"/>
<stop offset="0.380208" stop-color="#E033C5"/>
<stop offset="0.421875" stop-color="#C349C7"/>
<stop offset="0.505208" stop-color="#3B4DEA"/>
<stop offset="0.583333" stop-color="#5D59E8"/>
<stop offset="0.734375" stop-color="#268EDA"/>
<stop offset="1" stop-color="#36B6DE"/>
</linearGradient>
<linearGradient id="paint1_linear" x1="9.875" y1="20.4375" x2="17.9688" y2="28.5312" gradientUnits="userSpaceOnUse">
<stop stop-color="#FF1AA3"/>
<stop offset="1" stop-color="#8031E4"/>
</linearGradient>
<linearGradient id="paint2_linear" x1="37.625" y1="30.8438" x2="45.7188" y2="38.9375" gradientUnits="userSpaceOnUse">
<stop stop-color="#8031E4"/>
<stop offset="1" stop-color="#1A91FF"/>
</linearGradient>
<linearGradient id="paint3_linear" x1="46.875" y1="22.75" x2="46.875" y2="27.375" gradientUnits="userSpaceOnUse">
<stop stop-color="#FA2263"/>
<stop offset="1" stop-color="#2542D6"/>
</linearGradient>
<linearGradient id="paint4_linear" x1="51.5" y1="18.125" x2="51.5" y2="22.75" gradientUnits="userSpaceOnUse">
<stop stop-color="#FA2263"/>
<stop offset="1" stop-color="#2542D6"/>
</linearGradient>
<linearGradient id="paint5_linear" x1="56.125" y1="22.75" x2="56.125" y2="27.375" gradientUnits="userSpaceOnUse">
<stop stop-color="#FA2263"/>
<stop offset="1" stop-color="#2542D6"/>
</linearGradient>
<linearGradient id="paint6_linear" x1="51.5" y1="27.375" x2="51.5" y2="32" gradientUnits="userSpaceOnUse">
<stop stop-color="#FA2263"/>
<stop offset="1" stop-color="#2542D6"/>
</linearGradient>
<linearGradient id="paint7_linear" x1="24.3281" y1="29.6875" x2="24.3281" y2="40.0938" gradientUnits="userSpaceOnUse">
<stop stop-color="#02EAF9"/>
<stop offset="1" stop-color="#FF006B"/>
</linearGradient>
<linearGradient id="paint8_linear" x1="19.7031" y1="35.4688" x2="19.7031" y2="45.875" gradientUnits="userSpaceOnUse">
<stop stop-color="#02EAF9"/>
<stop offset="1" stop-color="#FF006B"/>
</linearGradient>
<linearGradient id="paint9_linear" x1="27.2187" y1="22.75" x2="38.7812" y2="22.75" gradientUnits="userSpaceOnUse">
<stop stop-color="#FA1C6C"/>
<stop offset="1" stop-color="#9E3CEC"/>
</linearGradient>
</defs>
</svg>
